<?xml version="1.0" standalone="no"?><!DOCTYPE svg PUBLIC "-//W3C//DTD SVG 1.1//EN" "http://www.w3.org/Graphics/SVG/1.1/DTD/svg11.dtd"><svg t="1750837285412" class="icon" viewBox="0 0 1024 1024" version="1.1" xmlns="http://www.w3.org/2000/svg" p-id="2169" xmlns:xlink="http://www.w3.org/1999/xlink" width="200" height="200"><path d="M626.8 136.6c107 10.8 192.8 75 211 185.4H776l99.8 148.6 100-148.6h-69C888.6 173.4 776 76.8 634 63c-19.8-1.6-38 15.4-38 36.8 1.2 18.4 14 35.2 30.8 36.8zM404.6 904.4C285 893.6 193.6 814 189.4 682.2h66l-99.8-148.6-100 148.6h66.2c2.8 170.2 122.4 280.4 275.8 295.8 19.8 1.4 38-15.4 38-36.8 0.2-18.4-13-34-31-36.8zM107.4 30.2h326.2c28.8 0 52 23.2 52 52v326c0 28.8-23.2 52-52 52H107.4c-28.8 0-52-23.2-52-52v-326c-0.2-28.8 23.2-52 52-52z" fill="#5B5B5B" p-id="2170"></path><path d="M599 583.2h326c28.8 0 52.2 23.4 52.2 52.2v325.8c0 28.8-23.4 52.2-52.2 52.2h-326c-28.8 0-52.2-23.4-52.2-52.2V635.4c0.2-28.8 23.4-52.2 52.2-52.2z" fill="#FF7A1E" p-id="2171"></path></svg>